<?xml version="1.0" encoding="UTF-8"?>
<!DOCTYPE svg PUBLIC "-//W3C//DTD SVG 1.1//EN" "http://www.w3.org/Graphics/SVG/1.1/DTD/svg11.dtd">
<svg xmlns="http://www.w3.org/2000/svg" xmlns:xlink="http://www.w3.org/1999/xlink" version="1.1" width="517px" height="205px" viewBox="-0.5 -0.5 517 205" style="background-color: rgb(255, 255, 255);"><defs><clipPath id="mx-clip-17-82-103-30-0"><rect x="17" y="82" width="103" height="30"/></clipPath><clipPath id="mx-clip-17-172-103-30-0"><rect x="17" y="172" width="103" height="30"/></clipPath><clipPath id="mx-clip-207-32-103-30-0"><rect x="207" y="32" width="103" height="30"/></clipPath><clipPath id="mx-clip-207-130-103-30-0"><rect x="207" y="130" width="103" height="30"/></clipPath><clipPath id="mx-clip-407-69-103-30-0"><rect x="407" y="69" width="103" height="30"/></clipPath></defs><g><path d="M 124 82 L 124 77.2 Q 124 52 98.8 52 L 27.2 52 Q 2 52 2 77.2 L 2 82" fill="none" stroke="rgb(0, 0, 0)" stroke-miterlimit="10" pointer-events="all"/><path d="M 2 82 L 2 86.8 Q 2 112 27.2 112 L 98.8 112 Q 124 112 124 86.8 L 124 82" fill="none" stroke="rgb(0, 0, 0)" stroke-miterlimit="10" pointer-events="none"/><path d="M 2 82 L 124 82" fill="none" stroke="rgb(0, 0, 0)" stroke-miterlimit="10" pointer-events="none"/><g fill="rgb(0, 0, 0)" font-family="Helvetica" font-weight="bold" pointer-events="none" font-size="12px"><text x="18.5" y="71.5">aPrintButton</text></g><g fill="rgb(0, 0, 0)" font-family="Helvetica" pointer-events="none" clip-path="url(#mx-clip-17-82-103-30-0)" font-size="12px"><text x="18.5" y="101.5">handler</text></g><path d="M 124 172 L 124 167.2 Q 124 142 98.8 142 L 27.2 142 Q 2 142 2 167.2 L 2 172" fill="none" stroke="rgb(0, 0, 0)" stroke-miterlimit="10" pointer-events="none"/><path d="M 2 172 L 2 176.8 Q 2 202 27.2 202 L 98.8 202 Q 124 202 124 176.8 L 124 172" fill="none" stroke="rgb(0, 0, 0)" stroke-miterlimit="10" pointer-events="none"/><path d="M 2 172 L 124 172" fill="none" stroke="rgb(0, 0, 0)" stroke-miterlimit="10" pointer-events="none"/><g fill="rgb(0, 0, 0)" font-family="Helvetica" font-weight="bold" pointer-events="none" font-size="12px"><text x="18.5" y="161.5">anOKButton</text></g><g fill="rgb(0, 0, 0)" font-family="Helvetica" pointer-events="none" clip-path="url(#mx-clip-17-172-103-30-0)" font-size="12px"><text x="18.5" y="191.5">handler</text></g><path d="M 314 32 L 314 27.2 Q 314 2 288.8 2 L 217.2 2 Q 192 2 192 27.2 L 192 32" fill="none" stroke="rgb(0, 0, 0)" stroke-miterlimit="10" pointer-events="none"/><path d="M 192 32 L 192 36.8 Q 192 62 217.2 62 L 288.8 62 Q 314 62 314 36.8 L 314 32" fill="none" stroke="rgb(0, 0, 0)" stroke-miterlimit="10" pointer-events="none"/><path d="M 192 32 L 314 32" fill="none" stroke="rgb(0, 0, 0)" stroke-miterlimit="10" pointer-events="none"/><g fill="rgb(0, 0, 0)" font-family="Helvetica" font-weight="bold" pointer-events="none" font-size="12px"><text x="208.5" y="21.5">aSaveDialog</text></g><g fill="rgb(0, 0, 0)" font-family="Helvetica" pointer-events="none" clip-path="url(#mx-clip-207-32-103-30-0)" font-size="12px"><text x="208.5" y="51.5">handler</text></g><path d="M 314 130 L 314 125.2 Q 314 100 288.8 100 L 217.2 100 Q 192 100 192 125.2 L 192 130" fill="none" stroke="rgb(0, 0, 0)" stroke-miterlimit="10" pointer-events="none"/><path d="M 192 130 L 192 134.8 Q 192 160 217.2 160 L 288.8 160 Q 314 160 314 134.8 L 314 130" fill="none" stroke="rgb(0, 0, 0)" stroke-miterlimit="10" pointer-events="none"/><path d="M 192 130 L 314 130" fill="none" stroke="rgb(0, 0, 0)" stroke-miterlimit="10" pointer-events="none"/><g fill="rgb(0, 0, 0)" font-family="Helvetica" font-weight="bold" pointer-events="none" font-size="12px"><text x="208.5" y="119.5">aPrintDialog</text></g><g fill="rgb(0, 0, 0)" font-family="Helvetica" pointer-events="none" clip-path="url(#mx-clip-207-130-103-30-0)" font-size="12px"><text x="208.5" y="149.5">handler</text></g><path d="M 74.97 99.4 L 185.69 114.16" fill="none" stroke="rgb(0, 0, 0)" stroke-miterlimit="10" pointer-events="none"/><ellipse cx="72" cy="99" rx="3" ry="3" fill="rgb(0, 0, 0)" stroke="rgb(0, 0, 0)" pointer-events="none"/><path d="M 190.89 114.85 L 183.49 117.4 L 185.69 114.16 L 184.42 110.46 Z" fill="rgb(0, 0, 0)" stroke="rgb(0, 0, 0)" stroke-miterlimit="10" pointer-events="none"/><path d="M 74.82 187.97 L 186.02 147.19" fill="none" stroke="rgb(0, 0, 0)" stroke-miterlimit="10" pointer-events="none"/><ellipse cx="72" cy="189" rx="3" ry="3" fill="rgb(0, 0, 0)" stroke="rgb(0, 0, 0)" pointer-events="none"/><path d="M 190.95 145.38 L 185.58 151.08 L 186.02 147.19 L 183.17 144.51 Z" fill="rgb(0, 0, 0)" stroke="rgb(0, 0, 0)" stroke-miterlimit="10" pointer-events="none"/><path d="M 514 69 L 514 64.2 Q 514 39 488.8 39 L 417.2 39 Q 392 39 392 64.2 L 392 69" fill="none" stroke="rgb(0, 0, 0)" stroke-miterlimit="10" pointer-events="none"/><path d="M 392 69 L 392 73.8 Q 392 99 417.2 99 L 488.8 99 Q 514 99 514 73.8 L 514 69" fill="none" stroke="rgb(0, 0, 0)" stroke-miterlimit="10" pointer-events="none"/><path d="M 392 69 L 514 69" fill="none" stroke="rgb(0, 0, 0)" stroke-miterlimit="10" pointer-events="none"/><g fill="rgb(0, 0, 0)" font-family="Helvetica" font-weight="bold" pointer-events="none" font-size="12px"><text x="408.5" y="58.5">anApplication</text></g><g fill="rgb(0, 0, 0)" font-family="Helvetica" pointer-events="none" clip-path="url(#mx-clip-407-69-103-30-0)" font-size="12px"><text x="408.5" y="88.5">handler</text></g><path d="M 264.98 49.31 L 385.67 61.95" fill="none" stroke="rgb(0, 0, 0)" stroke-miterlimit="10" pointer-events="none"/><ellipse cx="262" cy="49" rx="3" ry="3" fill="rgb(0, 0, 0)" stroke="rgb(0, 0, 0)" pointer-events="none"/><path d="M 390.89 62.5 L 383.56 65.25 L 385.67 61.95 L 384.29 58.29 Z" fill="rgb(0, 0, 0)" stroke="rgb(0, 0, 0)" stroke-miterlimit="10" pointer-events="none"/></g></svg>