<?xml version="1.0" encoding="UTF-8"?>
<!DOCTYPE svg PUBLIC "-//W3C//DTD SVG 1.1//EN" "http://www.w3.org/Graphics/SVG/1.1/DTD/svg11.dtd">
<svg xmlns="http://www.w3.org/2000/svg" xmlns:xlink="http://www.w3.org/1999/xlink" version="1.1" width="556px" height="406px" viewBox="-0.5 -0.5 556 406" style="background-color: rgb(255, 255, 255);"><defs><clipPath id="mx-clip-207-172-131-30-0"><rect x="207" y="172" width="131" height="30"/></clipPath><clipPath id="mx-clip-7-62-131-30-0"><rect x="7" y="62" width="131" height="30"/></clipPath><clipPath id="mx-clip-417-32-131-30-0"><rect x="417" y="32" width="131" height="30"/></clipPath><clipPath id="mx-clip-17-332-131-30-0"><rect x="17" y="332" width="131" height="30"/></clipPath><clipPath id="mx-clip-287-372-131-30-0"><rect x="287" y="372" width="131" height="30"/></clipPath></defs><g><path d="M 342 172 L 342 155.5 Q 342 142 328.5 142 L 215.5 142 Q 202 142 202 155.5 L 202 172" fill="none" stroke="rgb(0, 0, 0)" stroke-miterlimit="10" pointer-events="all"/><path d="M 202 172 L 202 188.5 Q 202 202 215.5 202 L 328.5 202 Q 342 202 342 188.5 L 342 172" fill="none" stroke="rgb(0, 0, 0)" stroke-miterlimit="10" pointer-events="none"/><path d="M 202 172 L 342 172" fill="none" stroke="rgb(0, 0, 0)" stroke-miterlimit="10" pointer-events="none"/><g fill="rgb(0, 0, 0)" font-family="Helvetica" font-weight="bold" pointer-events="none" font-size="12px"><text x="208.5" y="161.5">aFontDialogDirector</text></g><g fill="rgb(0, 0, 0)" font-family="Helvetica" pointer-events="none" clip-path="url(#mx-clip-207-172-131-30-0)" font-size="12px"/><path d="M 142 62 L 142 45.5 Q 142 32 128.5 32 L 15.5 32 Q 2 32 2 45.5 L 2 62" fill="none" stroke="rgb(0, 0, 0)" stroke-miterlimit="10" pointer-events="none"/><path d="M 2 62 L 2 78.5 Q 2 92 15.5 92 L 128.5 92 Q 142 92 142 78.5 L 142 62" fill="none" stroke="rgb(0, 0, 0)" stroke-miterlimit="10" pointer-events="none"/><path d="M 2 62 L 142 62" fill="none" stroke="rgb(0, 0, 0)" stroke-miterlimit="10" pointer-events="none"/><g fill="rgb(0, 0, 0)" font-family="Helvetica" font-weight="bold" pointer-events="none" font-size="12px"><text x="8.5" y="51.5">aClient</text></g><g fill="rgb(0, 0, 0)" font-family="Helvetica" pointer-events="none" clip-path="url(#mx-clip-7-62-131-30-0)" font-size="12px"><text x="8.5" y="81.5">director</text></g><path d="M 552 32 L 552 15.5 Q 552 2 538.5 2 L 425.5 2 Q 412 2 412 15.5 L 412 32" fill="none" stroke="rgb(0, 0, 0)" stroke-miterlimit="10" pointer-events="none"/><path d="M 412 32 L 412 48.5 Q 412 62 425.5 62 L 538.5 62 Q 552 62 552 48.5 L 552 32" fill="none" stroke="rgb(0, 0, 0)" stroke-miterlimit="10" pointer-events="none"/><path d="M 412 32 L 552 32" fill="none" stroke="rgb(0, 0, 0)" stroke-miterlimit="10" pointer-events="none"/><g fill="rgb(0, 0, 0)" font-family="Helvetica" font-weight="bold" pointer-events="none" font-size="12px"><text x="418.5" y="21.5">aListBox</text></g><g fill="rgb(0, 0, 0)" font-family="Helvetica" pointer-events="none" clip-path="url(#mx-clip-417-32-131-30-0)" font-size="12px"><text x="418.5" y="51.5">director</text></g><path d="M 152 332 L 152 315.5 Q 152 302 138.5 302 L 25.5 302 Q 12 302 12 315.5 L 12 332" fill="none" stroke="rgb(0, 0, 0)" stroke-miterlimit="10" pointer-events="none"/><path d="M 12 332 L 12 348.5 Q 12 362 25.5 362 L 138.5 362 Q 152 362 152 348.5 L 152 332" fill="none" stroke="rgb(0, 0, 0)" stroke-miterlimit="10" pointer-events="none"/><path d="M 12 332 L 152 332" fill="none" stroke="rgb(0, 0, 0)" stroke-miterlimit="10" pointer-events="none"/><g fill="rgb(0, 0, 0)" font-family="Helvetica" font-weight="bold" pointer-events="none" font-size="12px"><text x="18.5" y="321.5">aButton</text></g><g fill="rgb(0, 0, 0)" font-family="Helvetica" pointer-events="none" clip-path="url(#mx-clip-17-332-131-30-0)" font-size="12px"><text x="18.5" y="351.5">director</text></g><path d="M 422 372 L 422 355.5 Q 422 342 408.5 342 L 295.5 342 Q 282 342 282 355.5 L 282 372" fill="none" stroke="rgb(0, 0, 0)" stroke-miterlimit="10" pointer-events="none"/><path d="M 282 372 L 282 388.5 Q 282 402 295.5 402 L 408.5 402 Q 422 402 422 388.5 L 422 372" fill="none" stroke="rgb(0, 0, 0)" stroke-miterlimit="10" pointer-events="none"/><path d="M 282 372 L 422 372" fill="none" stroke="rgb(0, 0, 0)" stroke-miterlimit="10" pointer-events="none"/><g fill="rgb(0, 0, 0)" font-family="Helvetica" font-weight="bold" pointer-events="none" font-size="12px"><text x="288.5" y="361.5">anEntryField</text></g><g fill="rgb(0, 0, 0)" font-family="Helvetica" pointer-events="none" clip-path="url(#mx-clip-287-372-131-30-0)" font-size="12px"><text x="288.5" y="391.5">director</text></g><ellipse cx="73" cy="78" rx="5" ry="5" fill="#000000" stroke="none" pointer-events="none"/><ellipse cx="85" cy="347" rx="5" ry="5" fill="#000000" stroke="none" pointer-events="none"/><ellipse cx="346" cy="388" rx="5" ry="5" fill="#000000" stroke="none" pointer-events="none"/><ellipse cx="468" cy="48" rx="5" ry="5" fill="#000000" stroke="none" pointer-events="none"/><path d="M 78 78 L 195.15 152.64" fill="none" stroke="rgb(0, 0, 0)" stroke-miterlimit="10" pointer-events="none"/><path d="M 201.06 156.4 L 193.9 154.61 L 196.41 150.67 Z" fill="rgb(0, 0, 0)" stroke="rgb(0, 0, 0)" stroke-miterlimit="10" pointer-events="none"/><path d="M 90 347 L 237 347 L 237 210.12" fill="none" stroke="rgb(0, 0, 0)" stroke-miterlimit="10" pointer-events="none"/><path d="M 237 203.12 L 239.33 210.12 L 234.67 210.12 Z" fill="rgb(0, 0, 0)" stroke="rgb(0, 0, 0)" stroke-miterlimit="10" pointer-events="none"/><path d="M 351 388 L 372 388 L 372 192 L 350.12 192" fill="none" stroke="rgb(0, 0, 0)" stroke-miterlimit="10" pointer-events="none"/><path d="M 343.12 192 L 350.12 189.67 L 350.12 194.33 Z" fill="rgb(0, 0, 0)" stroke="rgb(0, 0, 0)" stroke-miterlimit="10" pointer-events="none"/><path d="M 464.46 51.54 L 468 51.52 L 468 157 L 350.12 157" fill="none" stroke="rgb(0, 0, 0)" stroke-miterlimit="10" pointer-events="none"/><path d="M 343.12 157 L 350.12 154.67 L 350.12 159.33 Z" fill="rgb(0, 0, 0)" stroke="rgb(0, 0, 0)" stroke-miterlimit="10" pointer-events="none"/><ellipse cx="327" cy="187" rx="5" ry="5" fill="#000000" stroke="none" pointer-events="none"/><ellipse cx="297" cy="187" rx="5" ry="5" fill="#000000" stroke="none" pointer-events="none"/><ellipse cx="221" cy="187" rx="5" ry="5" fill="#000000" stroke="none" pointer-events="none"/><path d="M 221 192 L 222 192 L 222 317 L 160.12 317" fill="none" stroke="rgb(0, 0, 0)" stroke-miterlimit="10" pointer-events="none"/><path d="M 153.12 317 L 160.12 314.67 L 160.12 319.33 Z" fill="rgb(0, 0, 0)" stroke="rgb(0, 0, 0)" stroke-miterlimit="10" pointer-events="none"/><path d="M 297 192 L 299.89 333.94" fill="none" stroke="rgb(0, 0, 0)" stroke-miterlimit="10" pointer-events="none"/><path d="M 300.04 340.94 L 297.56 333.99 L 302.23 333.9 Z" fill="rgb(0, 0, 0)" stroke="rgb(0, 0, 0)" stroke-miterlimit="10" pointer-events="none"/><path d="M 332 187 L 517.04 187 L 517 70.12" fill="none" stroke="rgb(0, 0, 0)" stroke-miterlimit="10" pointer-events="none"/><path d="M 517 63.12 L 519.34 70.12 L 514.67 70.12 Z" fill="rgb(0, 0, 0)" stroke="rgb(0, 0, 0)" stroke-miterlimit="10" pointer-events="none"/></g></svg>